<?xml version="1.0" encoding="utf-8"?>
<svg viewBox="267.021 174.442 141.332 50.989" style="shape-rendering:geometricPrecision;text-rendering:geometricPrecision;image-rendering:optimizeQuality;fill-rule:evenodd;clip-rule:evenodd" xmlns="http://www.w3.org/2000/svg" xmlns:bx="https://boxy-svg.com">
  <defs>
    <style>.fil0{fill:none}</style>
    <style bx:fonts="Roboto">@import url(https://fonts.googleapis.com/css2?family=Roboto%3Aital%2Cwght%400%2C100%3B0%2C300%3B0%2C400%3B0%2C500%3B0%2C700%3B0%2C900%3B1%2C100%3B1%2C300%3B1%2C400%3B1%2C500%3B1%2C700%3B1%2C900&amp;display=swap);</style>
  </defs>
  <g id="Layer_x0020_1" transform="matrix(0.030717002227902416, 0, 0, 0.027852004393935207, 263.0295449350706, 170.51368967464106)" style="">
    <path class="fil0" d="M0 0h2048v2048H0z"/>
    <path class="fil0" d="M255.999 255.999h1536v1536h-1536z"/>
    <path class="fil0" d="M255.999 256h1536v1536h-1536z"/>
    <path class="fil0" d="M255.999 256h1536v1536h-1536z"/>
    <path d="M1740.13 319.999h-588.735L857.852 479.381l-549.991-4.246c-18.906-.147-34.374 13.45-34.374 29.882v773.26c0 16.434 15.472 29.884 34.374 29.884h1432.27c18.905 0 34.374-13.447 34.374-29.883V349.88c0-16.436-15.468-29.882-34.374-29.882z" style="fill:#0288d1"/>
    <path d="M562.197 491.637h923.606c18.906 0 34.374 15.47 34.374 34.374v963.65c0 18.903-15.47 34.372-34.374 34.372H562.197c-18.904 0-34.374-15.466-34.374-34.372V526.01c0-18.906 15.468-34.374 34.374-34.374z" style="fill:#efebe9"/>
    <path d="m307.865 611.507 614.297 1.442 299.76 291.605 518.213-4.603c18.906-.167 34.374 15.476 34.374 34.374v694.287c0 18.902-15.472 34.374-34.374 34.374H307.865c-18.904 0-34.374-15.468-34.374-34.374V645.88c0-18.906 15.468-34.416 34.374-34.373z" style="fill:#039be5"/>
    <path d="M307.865 648.172H896.6l293.543 293.329 549.991-4.884c18.906-.168 34.374 15.474 34.374 34.373v530.638c0 18.9-15.473 34.373-34.374 34.373H307.864c-18.902 0-34.374-15.467-34.374-34.373V682.546c0-18.906 15.468-34.374 34.374-34.374z" style="fill:#29b6f6"/>
  </g>
  <text style="fill: rgb(229, 233, 234); font-family: Roboto; font-size: 28px; font-weight: 500; white-space: pre;" transform="matrix(0.7540600299835206, 0, 0, 0.9124100208282472, -634.4536837705028, -219.5455507568352)" x="1267.4" y="468.017">DocSync</text>
</svg>